%TF.GenerationSoftware,KiCad,Pcbnew,5.0.2-bee76a0~70~ubuntu18.04.1*%
%TF.CreationDate,2020-02-29T17:11:30-08:00*%
%TF.ProjectId,SolarCell+Y,536f6c61-7243-4656-9c6c-2b592e6b6963,rev?*%
%TF.SameCoordinates,Original*%
%TF.FileFunction,Copper,L2,Inr*%
%TF.FilePolarity,Positive*%
%FSLAX46Y46*%
G04 Gerber Fmt 4.6, Leading zero omitted, Abs format (unit mm)*
G04 Created by KiCad (PCBNEW 5.0.2-bee76a0~70~ubuntu18.04.1) date Sat 29 Feb 2020 05:11:30 PM PST*
%MOMM*%
%LPD*%
G01*
G04 APERTURE LIST*
%ADD10C,0.050000*%
%ADD11C,1.000000*%
%ADD12C,1.016000*%
%ADD13C,4.400000*%
%ADD14C,0.600000*%
%ADD15C,0.800000*%
%ADD16C,0.190000*%
G04 APERTURE END LIST*
D10*
X160500000Y-65600000D02*
X160500000Y-64100000D01*
X164000000Y-65600000D02*
X160500000Y-65600000D01*
X164000000Y-64100000D02*
X164000000Y-65600000D01*
X160500000Y-64100000D02*
X164000000Y-64100000D01*
X159000000Y-64100000D02*
X157500000Y-64100000D01*
X159000000Y-65650000D02*
X159000000Y-64100000D01*
X157500000Y-65650000D02*
X159000000Y-65650000D01*
X157500000Y-64100000D02*
X157500000Y-65650000D01*
X200000000Y-40000000D02*
X150000000Y-40000000D01*
X150000000Y-90000000D02*
X200000000Y-90000000D01*
X150000000Y-40000000D02*
X150000000Y-90000000D01*
X195900000Y-45100000D02*
G75*
G03X195900000Y-45100000I-1000000J0D01*
G01*
X156100000Y-84900000D02*
G75*
G03X156100000Y-84900000I-1000000J0D01*
G01*
X156100000Y-45100000D02*
G75*
G03X156100000Y-45100000I-1000000J0D01*
G01*
X195900000Y-84900000D02*
G75*
G03X195900000Y-84900000I-1000000J0D01*
G01*
X200000000Y-90000000D02*
X200000000Y-40000000D01*
D11*
X185750200Y-59512200D03*
X184835800Y-72263000D03*
X176987200Y-72263000D03*
X171602400Y-72263000D03*
X180424666Y-72263000D03*
D12*
X198566000Y-69330000D03*
X198566000Y-60530000D03*
X198566000Y-68380000D03*
X198566000Y-67430000D03*
X198566000Y-61480000D03*
X198566000Y-62430000D03*
D13*
X194800000Y-73100000D03*
X194800000Y-79600000D03*
D14*
X183593740Y-52415440D03*
X183593740Y-53050440D03*
X160978844Y-48166883D03*
X165112690Y-56134000D03*
X178796228Y-54378747D03*
X176174400Y-55806340D03*
X175574980Y-55144184D03*
X176844980Y-55144184D03*
X175567340Y-56413400D03*
X176844980Y-56388784D03*
X164338000Y-57912000D03*
X162575240Y-57912000D03*
X172417740Y-49303940D03*
X168148000Y-64897000D03*
X172466000Y-64897000D03*
X178689000Y-58420000D03*
X165684200Y-62738000D03*
X165684200Y-68300600D03*
X168148000Y-58420000D03*
X164973000Y-52451000D03*
X168783000Y-61147520D03*
D15*
X189300000Y-60700000D03*
D14*
X163830000Y-48196500D03*
X165700000Y-57100000D03*
X165862000Y-59055000D03*
X165100000Y-59436026D03*
X165100000Y-60325000D03*
X151000000Y-45500000D03*
X161036000Y-50292000D03*
X151003000Y-44005500D03*
X162359712Y-47637690D03*
X161036000Y-49276000D03*
X160909000Y-47117000D03*
X162369500Y-48750000D03*
X169560240Y-59019440D03*
X176184580Y-52959784D03*
X177942240Y-57749440D03*
X171528750Y-56161940D03*
X173878240Y-58471590D03*
X176218027Y-58650475D03*
X180164740Y-48224440D03*
X178954084Y-55753784D03*
D16*
X160528000Y-50800000D02*
X161036000Y-50292000D01*
X156550000Y-50800000D02*
X160528000Y-50800000D01*
X156550000Y-81450000D02*
X156550000Y-50800000D01*
X158550000Y-83450000D02*
X156550000Y-81450000D01*
X189900000Y-83450000D02*
X158550000Y-83450000D01*
X188350000Y-81900000D02*
X189900000Y-83450000D01*
X188350000Y-70950000D02*
X188350000Y-81900000D01*
X191700000Y-67600000D02*
X188350000Y-70950000D01*
X191700000Y-65400000D02*
X191700000Y-67600000D01*
X192150000Y-64950000D02*
X191700000Y-65400000D01*
X192150000Y-64900000D02*
X192150000Y-64950000D01*
X188700000Y-81800000D02*
X190700000Y-83800000D01*
X188700000Y-71050000D02*
X188700000Y-81800000D01*
X192050000Y-67700000D02*
X188700000Y-71050000D01*
X192050000Y-65500000D02*
X192050000Y-67700000D01*
X192600000Y-64950000D02*
X192050000Y-65500000D01*
X192600000Y-64900000D02*
X192600000Y-64950000D01*
X192050000Y-64350000D02*
X192600000Y-64900000D01*
X192050000Y-58600000D02*
X192050000Y-64350000D01*
X193800000Y-56850000D02*
X192050000Y-58600000D01*
X193800000Y-48500000D02*
X193800000Y-56850000D01*
X191500000Y-46200000D02*
X193800000Y-48500000D01*
X159850000Y-46200000D02*
X191500000Y-46200000D01*
X159850000Y-46600000D02*
X159850000Y-46200000D01*
X156600000Y-49850000D02*
X159850000Y-46600000D01*
X155850000Y-49850000D02*
X156600000Y-49850000D01*
X155850000Y-81900000D02*
X155850000Y-49850000D01*
X156100000Y-81900000D02*
X155850000Y-81900000D01*
X158200000Y-84000000D02*
X156100000Y-81900000D01*
X158200000Y-84150000D02*
X158200000Y-84000000D01*
X191500000Y-84150000D02*
X158200000Y-84150000D01*
X189050000Y-81700000D02*
X191500000Y-84150000D01*
X189050000Y-71150000D02*
X189050000Y-81700000D01*
X192400000Y-67800000D02*
X189050000Y-71150000D01*
X192400000Y-65600000D02*
X192400000Y-67800000D01*
X193000000Y-65000000D02*
X192400000Y-65600000D01*
X193000000Y-64950000D02*
X193000000Y-65000000D01*
X193050000Y-64900000D02*
X193000000Y-64950000D01*
X192400000Y-64250000D02*
X193050000Y-64900000D01*
X193850000Y-48100000D02*
X194150000Y-48100000D01*
X191900000Y-45850000D02*
X191900000Y-46150000D01*
X159500000Y-45850000D02*
X191900000Y-45850000D01*
X159500000Y-46500000D02*
X159500000Y-45850000D01*
X156500000Y-49500000D02*
X159500000Y-46500000D01*
X192750000Y-67900000D02*
X189400000Y-71250000D01*
X192750000Y-65700000D02*
X192750000Y-67900000D01*
X193450000Y-65000000D02*
X192750000Y-65700000D01*
X193450000Y-64950000D02*
X193450000Y-65000000D01*
X193500000Y-64900000D02*
X193450000Y-64950000D01*
X192750000Y-64150000D02*
X193500000Y-64900000D01*
X192750000Y-58800000D02*
X192750000Y-64150000D01*
X194500000Y-57050000D02*
X192750000Y-58800000D01*
X194500000Y-47750000D02*
X194500000Y-57050000D01*
X192250000Y-45500000D02*
X192250000Y-46050000D01*
X159150000Y-45500000D02*
X192250000Y-45500000D01*
X159150000Y-46400000D02*
X159150000Y-45500000D01*
X156400000Y-49150000D02*
X159150000Y-46400000D01*
X193750000Y-70500000D02*
X192200000Y-72050000D01*
X197100000Y-64900000D02*
X197100000Y-64950000D01*
X154450000Y-48450000D02*
X156200000Y-48450000D01*
X153700000Y-42700000D02*
X197300000Y-42700000D01*
X153400000Y-47950000D02*
X153950000Y-47400000D01*
X157500000Y-84850000D02*
X157500000Y-84200000D01*
X154000000Y-43000000D02*
X153700000Y-42700000D01*
X153400000Y-86600000D02*
X153400000Y-47950000D01*
X192600000Y-84850000D02*
X157500000Y-84850000D01*
X154000000Y-43850000D02*
X154000000Y-43000000D01*
X196600000Y-86600000D02*
X153400000Y-86600000D01*
X192600000Y-84350000D02*
X192600000Y-84850000D01*
X196600000Y-82850000D02*
X196600000Y-86600000D01*
X152350000Y-47650000D02*
X153651525Y-46348475D01*
X152350000Y-87650000D02*
X152350000Y-47650000D01*
X197650000Y-87650000D02*
X152350000Y-87650000D01*
X193800000Y-59100000D02*
X193800000Y-63850000D01*
X197650000Y-72000000D02*
X197650000Y-87650000D01*
X197600000Y-71950000D02*
X197650000Y-72000000D01*
X195900000Y-70200000D02*
X197600000Y-71900000D01*
X197550000Y-64950000D02*
X195900000Y-66600000D01*
X195900000Y-59700000D02*
X195900000Y-63250000D01*
X155800000Y-47050000D02*
X157050000Y-45800000D01*
X152900000Y-42350000D02*
X197650000Y-42350000D01*
X153050000Y-86950000D02*
X153050000Y-47850000D01*
X152000000Y-88000000D02*
X152000000Y-47550000D01*
X190800000Y-71650000D02*
X190800000Y-81200000D01*
X198000000Y-88000000D02*
X152000000Y-88000000D01*
X193350000Y-69100000D02*
X190800000Y-71650000D01*
X198000000Y-71600000D02*
X198000000Y-88000000D01*
X197750000Y-71600000D02*
X198000000Y-71600000D01*
X196250000Y-70100000D02*
X197750000Y-71600000D01*
X194050000Y-47400000D02*
X194850000Y-47400000D01*
X196250000Y-66700000D02*
X196250000Y-70100000D01*
X192600000Y-45950000D02*
X194050000Y-47400000D01*
X197800000Y-65150000D02*
X196250000Y-66700000D01*
X197800000Y-58250000D02*
X196250000Y-59800000D01*
X196250000Y-83200000D02*
X196250000Y-86250000D01*
X198000000Y-42000000D02*
X198000000Y-58250000D01*
X153650000Y-43100000D02*
X152900000Y-42350000D01*
X197900000Y-65500000D02*
X196600000Y-66800000D01*
X156450000Y-85900000D02*
X156450000Y-84485723D01*
X151400000Y-43100000D02*
X150600000Y-43100000D01*
X152100000Y-42000000D02*
X198000000Y-42000000D01*
X196200000Y-64900000D02*
X196100000Y-65000000D01*
X153650000Y-44800000D02*
X153650000Y-43100000D01*
X198350000Y-65500000D02*
X197900000Y-65500000D01*
X193650000Y-85900000D02*
X156450000Y-85900000D01*
X151900000Y-43600000D02*
X151400000Y-43100000D01*
X153300000Y-43200000D02*
X152100000Y-42000000D01*
X153300000Y-45150000D02*
X153650000Y-44800000D01*
X193653493Y-85896507D02*
X193650000Y-85900000D01*
X151900000Y-44300000D02*
X151900000Y-43600000D01*
X153300000Y-44700000D02*
X153300000Y-43200000D01*
X153300000Y-46250000D02*
X153300000Y-45150000D01*
X193653493Y-84053493D02*
X193653493Y-85896507D01*
X152000000Y-47550000D02*
X153300000Y-46250000D01*
X190800000Y-81200000D02*
X193653493Y-84053493D01*
X151650000Y-88350000D02*
X151650000Y-47450000D01*
X150950000Y-40950000D02*
X199050000Y-40950000D01*
X198350000Y-88350000D02*
X151650000Y-88350000D01*
X198350000Y-71250000D02*
X198350000Y-88350000D01*
X197850000Y-71250000D02*
X198350000Y-71250000D01*
X194850000Y-63550000D02*
X196200000Y-64900000D01*
X198350000Y-58600000D02*
X197900000Y-58600000D01*
X194850000Y-59400000D02*
X194850000Y-63550000D01*
X198350000Y-41650000D02*
X198350000Y-58600000D01*
X151000000Y-44750000D02*
X151550000Y-44200000D01*
X151700000Y-41650000D02*
X198350000Y-41650000D01*
X197650000Y-67100000D02*
X197650000Y-69700000D01*
X197600000Y-71900000D02*
X197600000Y-71950000D01*
X150247010Y-89752990D02*
X150247010Y-47052990D01*
X151700000Y-42050000D02*
X151700000Y-41650000D01*
X152950000Y-44600000D02*
X152950000Y-43300000D01*
X152600000Y-44950000D02*
X152950000Y-44600000D01*
X152600000Y-46050000D02*
X152600000Y-44950000D01*
X196250000Y-63150000D02*
X197800000Y-64700000D01*
X153750000Y-86250000D02*
X153750000Y-48050000D01*
X151300000Y-47350000D02*
X152600000Y-46050000D01*
X196250000Y-59800000D02*
X196250000Y-63150000D01*
X196250000Y-86250000D02*
X153750000Y-86250000D01*
X151300000Y-88700000D02*
X151300000Y-47350000D01*
X198700000Y-88700000D02*
X151300000Y-88700000D01*
X197950000Y-70900000D02*
X198700000Y-70900000D01*
X195550000Y-59600000D02*
X195550000Y-63350000D01*
X155150000Y-82600000D02*
X155150000Y-49150000D01*
X197300000Y-42700000D02*
X197300000Y-57850000D01*
X152600000Y-44500000D02*
X152600000Y-43400000D01*
X152950000Y-43300000D02*
X151700000Y-42050000D01*
X150600000Y-47150000D02*
X151900000Y-45850000D01*
X190450000Y-81300000D02*
X193300000Y-84150000D01*
X197650000Y-60200000D02*
X197650000Y-62750000D01*
X151900000Y-44750000D02*
X152250000Y-44400000D01*
X199400000Y-66550000D02*
X198200000Y-66550000D01*
X192250000Y-46050000D02*
X193950000Y-47750000D01*
X196600000Y-66800000D02*
X196600000Y-70000000D01*
X156450000Y-84485723D02*
X155614277Y-83650000D01*
X198200000Y-59650000D02*
X197650000Y-60200000D01*
X151550000Y-43700000D02*
X151300000Y-43450000D01*
X198350000Y-64350000D02*
X198350000Y-65500000D01*
X199100000Y-59650000D02*
X198200000Y-59650000D01*
X196600000Y-63050000D02*
X197900000Y-64350000D01*
X151550000Y-44200000D02*
X151550000Y-43700000D01*
X199400000Y-40600000D02*
X199400000Y-59350000D01*
X198000000Y-58250000D02*
X197800000Y-58250000D01*
X198700000Y-70900000D02*
X198700000Y-88700000D01*
X155614277Y-43850000D02*
X154000000Y-43850000D01*
X199400000Y-70200000D02*
X199400000Y-89400000D01*
X196600000Y-59900000D02*
X196600000Y-63050000D01*
X150600000Y-40600000D02*
X199400000Y-40600000D01*
X192200000Y-72050000D02*
X192200000Y-80801976D01*
X197900000Y-58600000D02*
X196600000Y-59900000D01*
X150600000Y-43100000D02*
X150600000Y-40600000D01*
X157500000Y-84200000D02*
X155900000Y-82600000D01*
X153651525Y-46348475D02*
X155615801Y-46348475D01*
X151300000Y-43450000D02*
X150250000Y-43450000D01*
X195900000Y-63250000D02*
X197550000Y-64900000D01*
X198150000Y-70200000D02*
X199400000Y-70200000D01*
X193100000Y-58900000D02*
X193100000Y-64050000D01*
X195550000Y-70300000D02*
X195350000Y-70500000D01*
X198000000Y-58950000D02*
X196950000Y-60000000D01*
X193548024Y-82150000D02*
X197300000Y-82150000D01*
X195200000Y-57250000D02*
X193450000Y-59000000D01*
X198700000Y-65850000D02*
X198000000Y-65850000D01*
X191850000Y-80900000D02*
X193450000Y-82500000D01*
X152250000Y-44400000D02*
X152250000Y-43500000D01*
X198200000Y-66550000D02*
X197650000Y-67100000D01*
X193950000Y-47750000D02*
X194500000Y-47750000D01*
X196600000Y-70000000D02*
X197850000Y-71250000D01*
X155614277Y-83650000D02*
X154100000Y-83650000D01*
X197900000Y-64350000D02*
X198350000Y-64350000D01*
X199400000Y-59350000D02*
X199100000Y-59650000D01*
X151650000Y-47450000D02*
X152950000Y-46150000D01*
X199050000Y-40950000D02*
X199050000Y-59250000D01*
X199400000Y-89400000D02*
X150600000Y-89400000D01*
X152950000Y-45050000D02*
X153300000Y-44700000D01*
X151550000Y-44650000D02*
X151900000Y-44300000D01*
X195550000Y-57350000D02*
X193800000Y-59100000D01*
X193950000Y-64950000D02*
X193100000Y-65800000D01*
X195550000Y-66500000D02*
X195550000Y-70300000D01*
X150247010Y-40247010D02*
X199752990Y-40247010D01*
X158450000Y-46200000D02*
X158450000Y-44800000D01*
X198700000Y-58950000D02*
X198000000Y-58950000D01*
X199752990Y-40247010D02*
X199752990Y-89752990D01*
X196950000Y-69900000D02*
X197950000Y-70900000D01*
X199752990Y-89752990D02*
X150247010Y-89752990D01*
X196600000Y-57650000D02*
X194850000Y-59400000D01*
X197100000Y-64950000D02*
X195550000Y-66500000D01*
X156200000Y-48450000D02*
X158450000Y-46200000D01*
X198700000Y-41300000D02*
X198700000Y-58950000D01*
X195350000Y-70500000D02*
X193750000Y-70500000D01*
X196950000Y-60000000D02*
X196950000Y-62950000D01*
X197550000Y-64900000D02*
X197550000Y-64950000D01*
X190700000Y-83800000D02*
X158450000Y-83800000D01*
X154150000Y-48100000D02*
X156100000Y-48100000D01*
X157150000Y-84300000D02*
X155800000Y-82950000D01*
X198050000Y-70550000D02*
X199050000Y-70550000D01*
X198200000Y-63300000D02*
X199400000Y-63300000D01*
X193100000Y-68050000D02*
X193050000Y-68050000D01*
X150247010Y-47052990D02*
X151550000Y-45750000D01*
X160200000Y-46550000D02*
X191400000Y-46550000D01*
X155500000Y-82250000D02*
X155500000Y-49500000D01*
X194250000Y-46700000D02*
X195550000Y-46700000D01*
X199050000Y-70550000D02*
X199050000Y-89050000D01*
X199400000Y-63300000D02*
X199400000Y-66550000D01*
X193050000Y-68050000D02*
X189750000Y-71350000D01*
X152950000Y-46150000D02*
X152950000Y-45050000D01*
X151550000Y-45750000D02*
X151550000Y-44650000D01*
X155500000Y-49500000D02*
X156500000Y-49500000D01*
X195550000Y-46700000D02*
X195550000Y-57350000D01*
X199050000Y-89050000D02*
X150950000Y-89050000D01*
X197300000Y-60100000D02*
X197300000Y-62850000D01*
X197800000Y-64700000D02*
X198000000Y-64700000D01*
X198100000Y-63650000D02*
X199050000Y-63650000D01*
X197650000Y-42350000D02*
X197650000Y-57950000D01*
X153050000Y-47850000D02*
X153850000Y-47050000D01*
X152250000Y-43500000D02*
X151500000Y-42750000D01*
X196950000Y-62950000D02*
X198000000Y-64000000D01*
X197650000Y-69700000D02*
X198150000Y-70200000D01*
X195200000Y-70150000D02*
X193650000Y-70150000D01*
X198000000Y-64700000D02*
X198000000Y-65150000D01*
X199050000Y-63650000D02*
X199050000Y-66200000D01*
X197650000Y-57950000D02*
X195900000Y-59700000D01*
X153850000Y-47050000D02*
X155800000Y-47050000D01*
X151500000Y-42750000D02*
X150950000Y-42750000D01*
X198000000Y-64000000D02*
X198700000Y-64000000D01*
X193650000Y-70150000D02*
X191850000Y-71950000D01*
X198000000Y-65150000D02*
X197800000Y-65150000D01*
X199050000Y-66200000D02*
X198100000Y-66200000D01*
X192200000Y-80801976D02*
X193548024Y-82150000D01*
X150950000Y-42750000D02*
X150950000Y-40950000D01*
X157050000Y-45800000D02*
X157050000Y-44400000D01*
X198700000Y-64000000D02*
X198700000Y-65850000D01*
X191850000Y-71950000D02*
X191850000Y-80900000D01*
X197300000Y-69800000D02*
X198050000Y-70550000D01*
X189750000Y-81500000D02*
X192600000Y-84350000D01*
X150950000Y-89050000D02*
X150950000Y-47250000D01*
X150950000Y-47250000D02*
X152250000Y-45950000D01*
X152250000Y-45950000D02*
X152250000Y-44850000D01*
X152250000Y-44850000D02*
X152600000Y-44500000D01*
X197300000Y-57850000D02*
X195550000Y-59600000D01*
X155900000Y-82600000D02*
X155150000Y-82600000D01*
X152600000Y-43400000D02*
X151600000Y-42400000D01*
X151600000Y-42400000D02*
X151300000Y-42400000D01*
X195550000Y-63350000D02*
X197100000Y-64900000D01*
X151900000Y-45850000D02*
X151900000Y-44750000D01*
X154450000Y-83300000D02*
X154450000Y-48450000D01*
X155150000Y-49150000D02*
X156400000Y-49150000D01*
X151300000Y-42400000D02*
X151300000Y-41300000D01*
X151300000Y-41300000D02*
X198700000Y-41300000D01*
X198000000Y-65850000D02*
X196950000Y-66900000D01*
X193450000Y-82500000D02*
X196950000Y-82500000D01*
X196950000Y-66900000D02*
X196950000Y-69900000D01*
X197300000Y-82150000D02*
X197300000Y-87300000D01*
X199050000Y-59250000D02*
X199000000Y-59300000D01*
X193450000Y-59000000D02*
X193450000Y-63950000D01*
X197300000Y-87300000D02*
X152700000Y-87300000D01*
X193450000Y-68400000D02*
X193150000Y-68400000D01*
X152700000Y-87300000D02*
X152700000Y-47750000D01*
X193150000Y-68400000D02*
X190100000Y-71450000D01*
X155615801Y-46348475D02*
X156352026Y-45612250D01*
X152700000Y-47750000D02*
X153750000Y-46700000D01*
X190100000Y-71450000D02*
X190100000Y-81400000D01*
X156352026Y-45612250D02*
X156352026Y-44587749D01*
X151000000Y-45500000D02*
X151000000Y-44750000D01*
X153750000Y-46700000D02*
X155700000Y-46700000D01*
X198100000Y-66200000D02*
X197300000Y-67000000D01*
X190100000Y-81400000D02*
X192950000Y-84250000D01*
X156352026Y-44587749D02*
X155614277Y-43850000D01*
X155700000Y-46700000D02*
X156700000Y-45700000D01*
X197300000Y-67000000D02*
X197300000Y-69800000D01*
X192950000Y-84250000D02*
X192950000Y-85200000D01*
X156700000Y-45700000D02*
X156700000Y-44500000D01*
X156700000Y-44500000D02*
X155700000Y-43500000D01*
X155700000Y-43500000D02*
X154350000Y-43500000D01*
X154350000Y-43500000D02*
X154350000Y-43050000D01*
X154350000Y-43050000D02*
X196950000Y-43050000D01*
X196950000Y-43050000D02*
X196950000Y-57750000D01*
X196950000Y-57750000D02*
X195200000Y-59500000D01*
X195200000Y-59500000D02*
X195200000Y-63450000D01*
X195200000Y-63450000D02*
X196650000Y-64900000D01*
X195900000Y-66600000D02*
X195900000Y-70200000D01*
X189750000Y-71350000D02*
X189750000Y-81500000D01*
X196650000Y-64900000D02*
X196650000Y-64950000D01*
X150600000Y-89400000D02*
X150600000Y-47150000D01*
X196650000Y-64950000D02*
X195200000Y-66400000D01*
X197650000Y-62750000D02*
X198200000Y-63300000D01*
X195200000Y-66400000D02*
X195200000Y-70150000D01*
X196950000Y-82500000D02*
X196950000Y-86950000D01*
X196950000Y-86950000D02*
X153050000Y-86950000D01*
X157050000Y-44400000D02*
X156050000Y-43400000D01*
X158450000Y-83800000D02*
X156200000Y-81550000D01*
X156100000Y-48100000D02*
X158100000Y-46100000D01*
X156050000Y-43400000D02*
X196600000Y-43400000D01*
X156200000Y-81550000D02*
X156200000Y-50200000D01*
X158100000Y-46100000D02*
X158100000Y-44450000D01*
X196600000Y-43400000D02*
X196600000Y-57650000D01*
X196100000Y-65000000D02*
X196100000Y-65050000D01*
X196100000Y-65050000D02*
X194850000Y-66300000D01*
X194850000Y-66300000D02*
X194850000Y-69800000D01*
X194850000Y-69800000D02*
X193550000Y-69800000D01*
X193550000Y-69800000D02*
X191500000Y-71850000D01*
X191500000Y-71850000D02*
X191500000Y-81000000D01*
X191500000Y-81000000D02*
X193350000Y-82850000D01*
X193350000Y-82850000D02*
X196600000Y-82850000D01*
X153950000Y-47400000D02*
X155900000Y-47400000D01*
X155900000Y-47400000D02*
X157400000Y-45900000D01*
X189400000Y-71250000D02*
X189400000Y-81600000D01*
X157400000Y-45900000D02*
X157400000Y-44300000D01*
X189400000Y-81600000D02*
X192250000Y-84450000D01*
X157400000Y-44300000D02*
X156850000Y-43750000D01*
X192250000Y-84450000D02*
X192200000Y-84500000D01*
X156850000Y-43750000D02*
X196250000Y-43750000D01*
X192200000Y-84500000D02*
X157850000Y-84500000D01*
X196250000Y-43750000D02*
X196250000Y-57550000D01*
X156200000Y-50200000D02*
X156700000Y-50200000D01*
X157850000Y-84500000D02*
X157850000Y-84100000D01*
X158100000Y-44450000D02*
X193300000Y-44450000D01*
X196250000Y-57550000D02*
X194500000Y-59300000D01*
X156700000Y-50200000D02*
X160200000Y-46700000D01*
X157850000Y-84100000D02*
X156000000Y-82250000D01*
X193300000Y-44450000D02*
X193300000Y-45750000D01*
X194500000Y-59300000D02*
X194500000Y-63650000D01*
X160200000Y-46700000D02*
X160200000Y-46550000D01*
X156000000Y-82250000D02*
X155500000Y-82250000D01*
X193300000Y-45750000D02*
X194250000Y-46700000D01*
X194500000Y-63650000D02*
X195750000Y-64900000D01*
X195750000Y-64900000D02*
X195750000Y-64950000D01*
X191400000Y-46550000D02*
X193450000Y-48600000D01*
X195750000Y-64950000D02*
X194500000Y-66200000D01*
X193450000Y-48600000D02*
X193450000Y-56750000D01*
X194500000Y-66200000D02*
X194500000Y-69450000D01*
X193450000Y-56750000D02*
X191700000Y-58500000D01*
X194500000Y-69450000D02*
X193450000Y-69450000D01*
X191700000Y-58500000D02*
X191700000Y-64450000D01*
X193450000Y-69450000D02*
X191150000Y-71750000D01*
X191700000Y-64450000D02*
X192150000Y-64900000D01*
X191150000Y-71750000D02*
X191150000Y-81100000D01*
X193800000Y-66000000D02*
X193800000Y-68750000D01*
X193250000Y-83200000D02*
X196250000Y-83200000D01*
X153750000Y-48050000D02*
X154050000Y-47750000D01*
X154050000Y-47750000D02*
X156000000Y-47750000D01*
X194150000Y-48100000D02*
X194150000Y-56950000D01*
X193800000Y-68750000D02*
X193250000Y-68750000D01*
X156000000Y-47750000D02*
X157750000Y-46000000D01*
X194150000Y-56950000D02*
X192400000Y-58700000D01*
X193250000Y-68750000D02*
X190450000Y-71550000D01*
X156800000Y-85550000D02*
X156800000Y-84400000D01*
X157750000Y-46000000D02*
X157750000Y-44200000D01*
X156800000Y-84400000D02*
X155700000Y-83300000D01*
X157750000Y-44200000D02*
X157650000Y-44100000D01*
X155700000Y-83300000D02*
X154450000Y-83300000D01*
X157650000Y-44100000D02*
X193650000Y-44100000D01*
X193650000Y-44100000D02*
X193650000Y-45619852D01*
X193650000Y-45619852D02*
X194380148Y-46350000D01*
X194380148Y-46350000D02*
X195900000Y-46350000D01*
X195900000Y-46350000D02*
X195900000Y-57450000D01*
X195300000Y-64950000D02*
X194150000Y-66100000D01*
X194150000Y-66100000D02*
X194150000Y-69100000D01*
X194150000Y-69100000D02*
X193350000Y-69100000D01*
X154100000Y-83650000D02*
X154100000Y-48150000D01*
X191900000Y-46150000D02*
X193850000Y-48100000D01*
X191150000Y-81100000D02*
X193250000Y-83200000D01*
X194850000Y-64950000D02*
X193800000Y-66000000D01*
X192400000Y-58700000D02*
X192400000Y-64250000D01*
X190450000Y-71550000D02*
X190450000Y-81300000D01*
X193300000Y-84150000D02*
X193300000Y-85550000D01*
X193300000Y-85550000D02*
X156800000Y-85550000D01*
X195900000Y-57450000D02*
X194150000Y-59200000D01*
X158450000Y-44800000D02*
X192950000Y-44800000D01*
X194150000Y-59200000D02*
X194150000Y-63750000D01*
X192950000Y-44800000D02*
X192950000Y-45850000D01*
X194150000Y-63750000D02*
X195300000Y-64900000D01*
X192950000Y-45850000D02*
X194150000Y-47050000D01*
X195300000Y-64900000D02*
X195300000Y-64950000D01*
X194150000Y-47050000D02*
X195200000Y-47050000D01*
X195200000Y-47050000D02*
X195200000Y-57250000D01*
X199000000Y-59300000D02*
X198100000Y-59300000D01*
X193450000Y-63950000D02*
X194400000Y-64900000D01*
X198100000Y-59300000D02*
X197300000Y-60100000D01*
X194400000Y-64900000D02*
X194400000Y-64950000D01*
X194400000Y-64950000D02*
X193450000Y-65900000D01*
X197300000Y-62850000D02*
X198100000Y-63650000D01*
X193450000Y-65900000D02*
X193450000Y-68400000D01*
X192950000Y-85200000D02*
X157150000Y-85200000D01*
X154100000Y-48150000D02*
X154150000Y-48100000D01*
X157150000Y-85200000D02*
X157150000Y-84300000D01*
X155800000Y-82950000D02*
X154800000Y-82950000D01*
X154800000Y-82950000D02*
X154800000Y-48800000D01*
X154800000Y-48800000D02*
X156300000Y-48800000D01*
X156300000Y-48800000D02*
X158800000Y-46300000D01*
X158800000Y-46300000D02*
X158800000Y-45150000D01*
X158800000Y-45150000D02*
X192600000Y-45150000D01*
X192600000Y-45150000D02*
X192600000Y-45950000D01*
X193800000Y-63850000D02*
X194850000Y-64900000D01*
X194850000Y-47400000D02*
X194850000Y-57150000D01*
X194850000Y-64900000D02*
X194850000Y-64950000D01*
X194850000Y-57150000D02*
X193100000Y-58900000D01*
X193100000Y-64050000D02*
X193950000Y-64900000D01*
X193950000Y-64900000D02*
X193950000Y-64950000D01*
X193100000Y-65800000D02*
X193100000Y-68050000D01*
X150247010Y-40397010D02*
X150247010Y-40247010D01*
X150250000Y-40400000D02*
X150247010Y-40397010D01*
X150250000Y-43450000D02*
X150250000Y-40400000D01*
M02*
